<mxfile host="app.diagrams.net" modified="2021-09-13T07:59:37.216Z" agent="5.0 (Macintosh; Intel Mac OS X 10_15_7) AppleWebKit/537.36 (KHTML, like Gecko) Chrome/92.0.4515.159 Safari/537.36" etag="gNb2TR7IL7JHwuWPN7ot" version="14.8.4" type="github">
  <diagram id="k0VdVNHGPsLno0e1PJ-b" name="第 1 页">
    <mxGraphModel dx="2894" dy="1352" grid="1" gridSize="10" guides="1" tooltips="1" connect="1" arrows="1" fold="1" page="1" pageScale="1" pageWidth="827" pageHeight="1169" math="0" shadow="0">
      <root>
        <mxCell id="0" />
        <mxCell id="1" parent="0" />
        <mxCell id="xAHIc43SDKKrJgC5-CBJ-1" style="edgeStyle=orthogonalEdgeStyle;rounded=0;orthogonalLoop=1;jettySize=auto;html=1;exitX=1;exitY=0.5;exitDx=0;exitDy=0;" edge="1" parent="1" source="xAHIc43SDKKrJgC5-CBJ-2" target="xAHIc43SDKKrJgC5-CBJ-28">
          <mxGeometry relative="1" as="geometry" />
        </mxCell>
        <mxCell id="xAHIc43SDKKrJgC5-CBJ-2" value="柯南" style="rounded=1;whiteSpace=wrap;html=1;fillColor=none;" vertex="1" parent="1">
          <mxGeometry x="64" y="400" width="117.5" height="40" as="geometry" />
        </mxCell>
        <mxCell id="xAHIc43SDKKrJgC5-CBJ-3" style="edgeStyle=orthogonalEdgeStyle;rounded=0;orthogonalLoop=1;jettySize=auto;html=1;exitX=0.5;exitY=1;exitDx=0;exitDy=0;entryX=0.5;entryY=1;entryDx=0;entryDy=0;" edge="1" parent="1" source="xAHIc43SDKKrJgC5-CBJ-4" target="xAHIc43SDKKrJgC5-CBJ-28">
          <mxGeometry relative="1" as="geometry" />
        </mxCell>
        <mxCell id="xAHIc43SDKKrJgC5-CBJ-4" value="黄金令箭" style="rounded=1;whiteSpace=wrap;html=1;fillColor=none;" vertex="1" parent="1">
          <mxGeometry x="-24" y="466" width="117.5" height="40" as="geometry" />
        </mxCell>
        <mxCell id="xAHIc43SDKKrJgC5-CBJ-5" style="edgeStyle=orthogonalEdgeStyle;rounded=0;orthogonalLoop=1;jettySize=auto;html=1;exitX=1;exitY=0.5;exitDx=0;exitDy=0;entryX=0;entryY=0.5;entryDx=0;entryDy=0;" edge="1" parent="1" source="xAHIc43SDKKrJgC5-CBJ-6" target="xAHIc43SDKKrJgC5-CBJ-28">
          <mxGeometry relative="1" as="geometry" />
        </mxCell>
        <mxCell id="xAHIc43SDKKrJgC5-CBJ-6" value="答疑群" style="rounded=1;whiteSpace=wrap;html=1;fillColor=none;" vertex="1" parent="1">
          <mxGeometry x="64" y="340" width="117.5" height="40" as="geometry" />
        </mxCell>
        <mxCell id="xAHIc43SDKKrJgC5-CBJ-7" style="edgeStyle=orthogonalEdgeStyle;rounded=0;orthogonalLoop=1;jettySize=auto;html=1;exitX=0.5;exitY=1;exitDx=0;exitDy=0;entryX=0.5;entryY=1;entryDx=0;entryDy=0;" edge="1" parent="1" source="xAHIc43SDKKrJgC5-CBJ-8" target="xAHIc43SDKKrJgC5-CBJ-28">
          <mxGeometry relative="1" as="geometry">
            <mxPoint x="267" y="430" as="targetPoint" />
          </mxGeometry>
        </mxCell>
        <mxCell id="xAHIc43SDKKrJgC5-CBJ-8" value="sentry" style="rounded=1;whiteSpace=wrap;html=1;fillColor=none;" vertex="1" parent="1">
          <mxGeometry x="-160" y="466" width="119" height="40" as="geometry" />
        </mxCell>
        <mxCell id="xAHIc43SDKKrJgC5-CBJ-9" style="edgeStyle=orthogonalEdgeStyle;rounded=0;orthogonalLoop=1;jettySize=auto;html=1;exitX=1;exitY=0.5;exitDx=0;exitDy=0;entryX=0;entryY=0.5;entryDx=0;entryDy=0;" edge="1" parent="1" source="xAHIc43SDKKrJgC5-CBJ-13" target="xAHIc43SDKKrJgC5-CBJ-6">
          <mxGeometry relative="1" as="geometry" />
        </mxCell>
        <mxCell id="xAHIc43SDKKrJgC5-CBJ-10" style="edgeStyle=orthogonalEdgeStyle;rounded=0;orthogonalLoop=1;jettySize=auto;html=1;exitX=1;exitY=0.5;exitDx=0;exitDy=0;entryX=0;entryY=0.5;entryDx=0;entryDy=0;" edge="1" parent="1" source="xAHIc43SDKKrJgC5-CBJ-13" target="xAHIc43SDKKrJgC5-CBJ-2">
          <mxGeometry relative="1" as="geometry" />
        </mxCell>
        <mxCell id="xAHIc43SDKKrJgC5-CBJ-11" style="edgeStyle=orthogonalEdgeStyle;rounded=0;orthogonalLoop=1;jettySize=auto;html=1;exitX=0.25;exitY=1;exitDx=0;exitDy=0;entryX=0.5;entryY=0;entryDx=0;entryDy=0;" edge="1" parent="1" source="xAHIc43SDKKrJgC5-CBJ-13" target="xAHIc43SDKKrJgC5-CBJ-8">
          <mxGeometry relative="1" as="geometry">
            <Array as="points">
              <mxPoint x="-65" y="450" />
              <mxPoint x="-101" y="450" />
              <mxPoint x="-101" y="460" />
            </Array>
          </mxGeometry>
        </mxCell>
        <mxCell id="xAHIc43SDKKrJgC5-CBJ-12" style="edgeStyle=orthogonalEdgeStyle;rounded=0;orthogonalLoop=1;jettySize=auto;html=1;exitX=0.75;exitY=1;exitDx=0;exitDy=0;entryX=0.5;entryY=0;entryDx=0;entryDy=0;" edge="1" parent="1" source="xAHIc43SDKKrJgC5-CBJ-13" target="xAHIc43SDKKrJgC5-CBJ-4">
          <mxGeometry relative="1" as="geometry">
            <Array as="points">
              <mxPoint x="-5" y="450" />
              <mxPoint x="35" y="450" />
              <mxPoint x="35" y="460" />
            </Array>
          </mxGeometry>
        </mxCell>
        <mxCell id="xAHIc43SDKKrJgC5-CBJ-13" value="用户" style="rounded=1;whiteSpace=wrap;html=1;fillColor=none;" vertex="1" parent="1">
          <mxGeometry x="-95" y="340" width="120" height="100" as="geometry" />
        </mxCell>
        <mxCell id="xAHIc43SDKKrJgC5-CBJ-14" style="edgeStyle=orthogonalEdgeStyle;rounded=0;orthogonalLoop=1;jettySize=auto;html=1;exitX=1;exitY=0.5;exitDx=0;exitDy=0;entryX=0.008;entryY=0.538;entryDx=0;entryDy=0;entryPerimeter=0;" edge="1" parent="1" source="xAHIc43SDKKrJgC5-CBJ-15" target="xAHIc43SDKKrJgC5-CBJ-21">
          <mxGeometry relative="1" as="geometry">
            <mxPoint x="-533" y="389.90697674418607" as="targetPoint" />
          </mxGeometry>
        </mxCell>
        <mxCell id="xAHIc43SDKKrJgC5-CBJ-15" value="月度迭代" style="rounded=0;whiteSpace=wrap;html=1;fillColor=none;" vertex="1" parent="1">
          <mxGeometry x="-651" y="371" width="105" height="40" as="geometry" />
        </mxCell>
        <mxCell id="xAHIc43SDKKrJgC5-CBJ-16" style="edgeStyle=orthogonalEdgeStyle;rounded=0;orthogonalLoop=1;jettySize=auto;html=1;exitX=1;exitY=0.5;exitDx=0;exitDy=0;entryX=0;entryY=0.5;entryDx=0;entryDy=0;" edge="1" parent="1" source="xAHIc43SDKKrJgC5-CBJ-17" target="xAHIc43SDKKrJgC5-CBJ-13">
          <mxGeometry relative="1" as="geometry" />
        </mxCell>
        <mxCell id="xAHIc43SDKKrJgC5-CBJ-17" value="全量更新" style="rounded=0;whiteSpace=wrap;html=1;fillColor=none;" vertex="1" parent="1">
          <mxGeometry x="-188" y="370" width="65" height="40" as="geometry" />
        </mxCell>
        <mxCell id="xAHIc43SDKKrJgC5-CBJ-18" style="edgeStyle=orthogonalEdgeStyle;rounded=0;orthogonalLoop=1;jettySize=auto;html=1;exitX=1;exitY=0.5;exitDx=0;exitDy=0;entryX=0;entryY=0.5;entryDx=0;entryDy=0;" edge="1" parent="1" source="xAHIc43SDKKrJgC5-CBJ-19" target="xAHIc43SDKKrJgC5-CBJ-17">
          <mxGeometry relative="1" as="geometry" />
        </mxCell>
        <mxCell id="xAHIc43SDKKrJgC5-CBJ-19" value="官网&lt;br&gt;公告" style="whiteSpace=wrap;html=1;aspect=fixed;fillColor=none;" vertex="1" parent="1">
          <mxGeometry x="-273" y="360" width="60" height="60" as="geometry" />
        </mxCell>
        <mxCell id="xAHIc43SDKKrJgC5-CBJ-20" style="edgeStyle=orthogonalEdgeStyle;rounded=0;orthogonalLoop=1;jettySize=auto;html=1;exitX=1;exitY=0.5;exitDx=0;exitDy=0;entryX=0;entryY=0.5;entryDx=0;entryDy=0;" edge="1" parent="1" source="xAHIc43SDKKrJgC5-CBJ-21" target="xAHIc43SDKKrJgC5-CBJ-23">
          <mxGeometry relative="1" as="geometry">
            <mxPoint x="-463" y="389.90697674418607" as="targetPoint" />
          </mxGeometry>
        </mxCell>
        <mxCell id="xAHIc43SDKKrJgC5-CBJ-21" value="打包" style="rounded=0;whiteSpace=wrap;html=1;fillColor=none;" vertex="1" parent="1">
          <mxGeometry x="-525" y="370" width="55" height="40" as="geometry" />
        </mxCell>
        <mxCell id="xAHIc43SDKKrJgC5-CBJ-22" style="edgeStyle=orthogonalEdgeStyle;rounded=0;orthogonalLoop=1;jettySize=auto;html=1;exitX=1;exitY=0.5;exitDx=0;exitDy=0;entryX=0;entryY=0.5;entryDx=0;entryDy=0;" edge="1" parent="1" source="xAHIc43SDKKrJgC5-CBJ-23" target="xAHIc43SDKKrJgC5-CBJ-26">
          <mxGeometry relative="1" as="geometry">
            <mxPoint x="-390" y="390" as="sourcePoint" />
          </mxGeometry>
        </mxCell>
        <mxCell id="xAHIc43SDKKrJgC5-CBJ-23" value="发布" style="rounded=0;whiteSpace=wrap;html=1;fillColor=none;" vertex="1" parent="1">
          <mxGeometry x="-453" y="370" width="55" height="40" as="geometry" />
        </mxCell>
        <mxCell id="xAHIc43SDKKrJgC5-CBJ-24" style="edgeStyle=orthogonalEdgeStyle;rounded=0;orthogonalLoop=1;jettySize=auto;html=1;exitX=0.5;exitY=1;exitDx=0;exitDy=0;entryX=0.5;entryY=1;entryDx=0;entryDy=0;" edge="1" parent="1" source="xAHIc43SDKKrJgC5-CBJ-26" target="xAHIc43SDKKrJgC5-CBJ-15">
          <mxGeometry relative="1" as="geometry" />
        </mxCell>
        <mxCell id="xAHIc43SDKKrJgC5-CBJ-25" style="edgeStyle=orthogonalEdgeStyle;rounded=0;orthogonalLoop=1;jettySize=auto;html=1;exitX=1;exitY=0.5;exitDx=0;exitDy=0;" edge="1" parent="1" source="xAHIc43SDKKrJgC5-CBJ-26">
          <mxGeometry relative="1" as="geometry">
            <mxPoint x="-274" y="390" as="targetPoint" />
          </mxGeometry>
        </mxCell>
        <mxCell id="xAHIc43SDKKrJgC5-CBJ-26" value="灰度通过" style="rhombus;whiteSpace=wrap;html=1;fillColor=none;" vertex="1" parent="1">
          <mxGeometry x="-375" y="370" width="80" height="40" as="geometry" />
        </mxCell>
        <mxCell id="xAHIc43SDKKrJgC5-CBJ-27" style="edgeStyle=orthogonalEdgeStyle;rounded=0;orthogonalLoop=1;jettySize=auto;html=1;exitX=0.5;exitY=0;exitDx=0;exitDy=0;entryX=0.5;entryY=0;entryDx=0;entryDy=0;" edge="1" parent="1" source="xAHIc43SDKKrJgC5-CBJ-28" target="xAHIc43SDKKrJgC5-CBJ-15">
          <mxGeometry relative="1" as="geometry">
            <Array as="points">
              <mxPoint x="264" y="320" />
              <mxPoint x="-598" y="320" />
            </Array>
          </mxGeometry>
        </mxCell>
        <mxCell id="xAHIc43SDKKrJgC5-CBJ-28" value="功能列表" style="rounded=0;whiteSpace=wrap;html=1;fillColor=none;" vertex="1" parent="1">
          <mxGeometry x="217" y="369" width="93" height="51" as="geometry" />
        </mxCell>
        <mxCell id="xAHIc43SDKKrJgC5-CBJ-29" style="edgeStyle=orthogonalEdgeStyle;rounded=0;orthogonalLoop=1;jettySize=auto;html=1;exitX=0;exitY=0.5;exitDx=0;exitDy=0;entryX=1;entryY=0.5;entryDx=0;entryDy=0;" edge="1" parent="1" source="xAHIc43SDKKrJgC5-CBJ-30" target="xAHIc43SDKKrJgC5-CBJ-28">
          <mxGeometry relative="1" as="geometry" />
        </mxCell>
        <mxCell id="xAHIc43SDKKrJgC5-CBJ-30" value="业务需求" style="rounded=1;whiteSpace=wrap;html=1;fillColor=none;" vertex="1" parent="1">
          <mxGeometry x="333" y="377.25" width="80" height="34.5" as="geometry" />
        </mxCell>
      </root>
    </mxGraphModel>
  </diagram>
</mxfile>
